<svg xmlns="http://www.w3.org/2000/svg" viewBox="0 0 387.49 104.64"><defs><style>.cls-1,.cls-4{fill:#fff;}.cls-2,.cls-5{fill:#2b2770;}.cls-3,.cls-6{fill:#d82d24;}.cls-3,.cls-4,.cls-5{fill-rule:evenodd;}.cls-7{font-size:28.52px;fill:#fcfbdb;font-family:Montserrat-SemiBold, Montserrat;font-weight:600;}.cls-8{letter-spacing:-0.01em;}.cls-9{letter-spacing:0em;}.cls-10{letter-spacing:-0.02em;}.cls-11{font-size:48px;}.cls-12{letter-spacing:-0.01em;}</style></defs><g id="Layer_2" data-name="Layer 2"><g id="Layer_1-2" data-name="Layer 1"><path class="cls-1" d="M40.79,103.73c-15-7.61-26.08-19.48-33-35.27A95.91,95.91,0,0,1,.27,37.31,88.34,88.34,0,0,1,1.36,14.44l.42-2,1.91-.66L37.89.06,39,0,81,9.49l.43,2.31C85.17,32.14,84,50.21,77.78,65.51s-17.47,28.2-33.5,38.08l-1.71,1Z"/><path class="cls-2" d="M38.68,4.37,5.34,15.82C3.39,25.49,2.74,47,11.54,67a66.39,66.39,0,0,0,30.84,33.11C57.74,90.59,68.17,78.53,74,64.18c5.92-14.69,7-31.8,3.47-51.06Zm-34,10.49L38.47,3.25l.3,0,39.62,9,.07.37C82.08,32.17,81,49.61,75,64.6c-5.91,14.66-16.57,27-32.29,36.64l-.27.17-.28-.15a67.36,67.36,0,0,1-31.64-33.8C1.51,47,2.27,24.92,4.3,15.27L4.37,15Z"/><path class="cls-3" d="M34.4,47.2c-.44.85-1.85-4.15-3.39-6.83S18.48,22.61,20.48,19.48s17.12-7.75,18.58-6.7,2.3,1.15.77,3.06-9.58,12.27-9.58,12.27A40.55,40.55,0,0,0,41.94,40.18s-5.75-.77-5.94.19a65.91,65.91,0,0,1-1.6,6.83"/><path class="cls-4" d="M29.84,16.18c0,.1.44-.09,1.21-.36,1.48-.51,3.76-1.34,3.76-1.34s-1.24,1.16-.39,1.47a1.76,1.76,0,0,0,1.4,0s.31,1.4,1,1.24,1.08-1.39,1.47-1.55a1,1,0,0,1,.62-.08L37,18.28l-2,2S32.52,18.24,31,17a5.67,5.67,0,0,0-1.18-.85"/><path class="cls-3" d="M48.93,47.2c.44.85,1.85-4.15,3.38-6.83S64.85,22.61,62.85,19.48s-17.12-7.75-18.58-6.7-2.3,1.15-.77,3.06,9.58,12.27,9.58,12.27A40.55,40.55,0,0,1,41.39,40.18s5.75-.77,5.94.19a63.44,63.44,0,0,0,1.6,6.83"/><path class="cls-4" d="M53.49,16.18c0,.1-.44-.09-1.21-.36-1.48-.51-3.76-1.34-3.76-1.34s1.24,1.16.39,1.47a1.76,1.76,0,0,1-1.4,0s-.31,1.4-1,1.24S45.42,15.8,45,15.64a1,1,0,0,0-.62-.08l1.94,2.72,2,2s2.44-2.06,3.94-3.27a5.67,5.67,0,0,1,1.18-.85"/><path class="cls-5" d="M43.47,58.65c.5-.5,14.75-12.9,15-13.26s.36-1.15.8-2,3.81-2.66,3.81-2.66,1.37,1.73,1.29,2.16a7.66,7.66,0,0,1-2.3,2.45,11.37,11.37,0,0,1-2.73,1.15L46.56,58a12.46,12.46,0,0,0-2.38,2.09c-.5.8,1.16,1.3,1.88,1.37s1.79-1.22,2.73-1.73,3.17-.43,4.1-.43.22,1.8-.21,2.81-2.24,1.37-3.17,1.51a18.72,18.72,0,0,1-3.53.15c-1-.07-.93-.87-1.22-1.23a5.69,5.69,0,0,0-2.23-1.22,3.73,3.73,0,0,0-1.73.79c-.43.36-2.8,2-2.8,2s-1.37.14-2,.14a11.11,11.11,0,0,1-2.3-.5,3.38,3.38,0,0,1-2.52-3c-.36-2.45,3-1,4.18-1.08s3.09,2.16,3.67,2.3,2.51-2.23,2-2.23-15.61-13-15.61-13l-1.73-.07-4.17-3.25L21,41.57h.35l4.32,3.53.07.72L42,58.94Z"/><path class="cls-4" d="M21.81,43.66l1.58.36s1.51,1.08,1.08,1.23-.14.5-.58.21-.57-.21-.93-.5a12.47,12.47,0,0,1-1.15-1.3"/><path class="cls-4" d="M62.59,42.68l-.76,1.43s-1.43,1.18-1.46.73-.45-.27-.06-.61.36-.51.73-.78a12.46,12.46,0,0,1,1.55-.77"/><path class="cls-4" d="M34,61.39l-1-1a5.76,5.76,0,0,1,1.73,0,16.5,16.5,0,0,1,2,.91c.37.2,1.33.65.91.89a2.91,2.91,0,0,1-1.48.66c-.72,0-.57.17-.94-.17S34,61.39,34,61.39"/><path class="cls-4" d="M50.88,61.39l1-1a5.76,5.76,0,0,0-1.73,0,15.82,15.82,0,0,0-2,.91c-.37.2-1.34.65-.92.89a2.91,2.91,0,0,0,1.48.66c.72,0,.57.17.95-.17a18.21,18.21,0,0,0,1.22-1.38"/><path class="cls-6" d="M16,68.92c-.09-.74,1.06-18.67,10.5-3.31C24.16,69.32,21,71.17,16,68.92m-1.07.13a23.34,23.34,0,0,1,1.34-7.34A6.13,6.13,0,0,1,18.19,59a3.28,3.28,0,0,1,3.53-.21c1.55.73,3.42,2.63,5.68,6.31l.35.56-.36.57a10,10,0,0,1-4.77,4.33c-2,.74-4.29.64-7.08-.61L15,69.65Z"/><path class="cls-4" d="M16,68.92c-.09-.74,1.06-18.67,10.5-3.31C24.16,69.32,21,71.17,16,68.92"/><path class="cls-6" d="M67.88,61a23.22,23.22,0,0,1,1.33,7.34l-.07.6-.56.25c-2.79,1.25-5.1,1.35-7.07.61a10.05,10.05,0,0,1-4.78-4.33l-.35-.57.34-.56C59,60.65,60.86,58.75,62.41,58a3.28,3.28,0,0,1,3.53.21A6.29,6.29,0,0,1,67.88,61m-.82,6.5a20.45,20.45,0,0,0-1.17-5.7A4.26,4.26,0,0,0,64.69,60a1.3,1.3,0,0,0-1.37,0c-1.12.53-2.56,2-4.41,4.92a7.51,7.51,0,0,0,3.35,2.9,6.58,6.58,0,0,0,4.8-.29"/><path class="cls-4" d="M68.15,68.2c.09-.74-1.07-18.67-10.51-3.31C60,68.6,63.13,70.45,68.15,68.2"/><path class="cls-6" d="M41.92,68.63a102,102,0,0,1-21.56-2.4V74.9a56.45,56.45,0,0,0,21.2,4,67.42,67.42,0,0,0,21.91-4V66.24a97,97,0,0,1-21.55,2.39M19.53,63.84a99.59,99.59,0,0,0,22.39,2.65A95.55,95.55,0,0,0,64.3,63.85l1.32-.32V76.38l-.71.26A70.06,70.06,0,0,1,41.56,81a58.38,58.38,0,0,1-22.67-4.4l-.68-.27V63.54Z"/><path class="cls-4" d="M19.29,64.89a97.37,97.37,0,0,0,45.26,0V75.63c-15.55,5.58-30.67,5.94-45.26,0Z"/><path class="cls-6" d="M61.31,71.31l.2,1.09.51-.15a1.15,1.15,0,0,0,.41-.16.43.43,0,0,0,.13-.22.65.65,0,0,0,0-.34.68.68,0,0,0-.13-.31.33.33,0,0,0-.21-.12,1.63,1.63,0,0,0-.47.08ZM61,69.69l.18.94.35-.1.4-.13a.43.43,0,0,0,.19-.21.63.63,0,0,0,0-.34.73.73,0,0,0-.12-.28.33.33,0,0,0-.18-.1,2.55,2.55,0,0,0-.53.13Zm-.67-.53,1.08-.31a1.31,1.31,0,0,1,.64-.07.67.67,0,0,1,.36.26,1.2,1.2,0,0,1,.23.54,1.32,1.32,0,0,1,0,.56.87.87,0,0,1-.21.43.7.7,0,0,1,.44.26,1.19,1.19,0,0,1,.25.58,1.63,1.63,0,0,1,0,.8.87.87,0,0,1-.34.5A4.32,4.32,0,0,1,62,73l-.91.26Zm-2.62.69.55-.14.35,2.23a5.86,5.86,0,0,0,.12.67A.66.66,0,0,0,59,73a.42.42,0,0,0,.38.06.48.48,0,0,0,.29-.18.6.6,0,0,0,.12-.33,4.89,4.89,0,0,0-.08-.81l-.35-2.27.54-.14.34,2.16a7.94,7.94,0,0,1,.12,1.21,1.21,1.21,0,0,1-.23.68,1.08,1.08,0,0,1-.62.39,1.12,1.12,0,0,1-.69,0,1,1,0,0,1-.43-.45,4.56,4.56,0,0,1-.3-1.24Zm-1.64,4.58-.52-4.1.55-.11.43,3.41,1.37-.27.09.69Zm-1.19-1.31.56.17a2.17,2.17,0,0,1-.32,1.09,1,1,0,0,1-.68.43,1,1,0,0,1-.92-.38A2.89,2.89,0,0,1,53,72.89a3.14,3.14,0,0,1,.22-1.72,1.07,1.07,0,0,1,.85-.66.9.9,0,0,1,.81.27,1.77,1.77,0,0,1,.4.78l-.53.28a1,1,0,0,0-.25-.49.48.48,0,0,0-.39-.12.59.59,0,0,0-.46.4,2.29,2.29,0,0,0-.09,1.12,2.38,2.38,0,0,0,.3,1.08.49.49,0,0,0,.88,0,1.64,1.64,0,0,0,.16-.7m-5,2.27-.29-4.17,1.88-.2,0,.7-1.33.15.07,1,1.15-.13.05.71-1.15.12.12,1.77Zm-2.29.19-.18-4.15.56,0,.14,3.44,1.38-.09,0,.7ZM45,73.65a2,2,0,0,0,.25,1.07.63.63,0,0,0,.55.34.66.66,0,0,0,.54-.38,2.37,2.37,0,0,0,.18-1.11,2.06,2.06,0,0,0-.24-1.07.6.6,0,0,0-.56-.32.64.64,0,0,0-.54.37,2.08,2.08,0,0,0-.18,1.1m-.58,0a3.72,3.72,0,0,1,.15-1.24,1.82,1.82,0,0,1,.44-.74,1.11,1.11,0,0,1,.69-.26,1.09,1.09,0,0,1,1,.52,2.83,2.83,0,0,1,.42,1.58,3,3,0,0,1-.35,1.66,1.09,1.09,0,0,1-.93.56,1.06,1.06,0,0,1-1-.47,2.93,2.93,0,0,1-.44-1.61m-1.54.59v-.7h1.2v1.67a1.5,1.5,0,0,1-.51.45,1.34,1.34,0,0,1-.67.19,1.11,1.11,0,0,1-.72-.25,1.67,1.67,0,0,1-.5-.74,3.51,3.51,0,0,1-.18-1.17,3.23,3.23,0,0,1,.19-1.19,1.66,1.66,0,0,1,.48-.73,1.06,1.06,0,0,1,.7-.24,1,1,0,0,1,.79.31,1.56,1.56,0,0,1,.38.92l-.55.15a.87.87,0,0,0-.23-.49.52.52,0,0,0-.39-.17.66.66,0,0,0-.58.34,2.05,2.05,0,0,0-.22,1,2.21,2.21,0,0,0,.24,1.15.62.62,0,0,0,.56.34.71.71,0,0,0,.33-.09,1.14,1.14,0,0,0,.32-.26v-.54Zm-5.6,1.4-.54-4.21.57,0,.33,2.89.59-2.85.66,0,.4,2.94.51-2.9.56,0-.79,4.16-.59,0-.46-3.15-.64,3.1Zm-2.81-2.35a2.15,2.15,0,0,0,.16,1.1.67.67,0,0,0,.52.41.63.63,0,0,0,.57-.31A2.17,2.17,0,0,0,36,73.46a2.08,2.08,0,0,0-.15-1.09.63.63,0,0,0-.52-.4.6.6,0,0,0-.57.3,2.09,2.09,0,0,0-.28,1.07m-.57,0a3.87,3.87,0,0,1,.24-1.22,1.58,1.58,0,0,1,.51-.67,1,1,0,0,1,.7-.18,1.17,1.17,0,0,1,.94.64,3,3,0,0,1,.28,1.64,2.84,2.84,0,0,1-.49,1.6,1,1,0,0,1-1,.44,1.15,1.15,0,0,1-.91-.6,3,3,0,0,1-.3-1.65M31.09,75l.35-4.16.54.07.89,2.93.23-2.78.52.07-.36,4.16-.55-.07-.88-2.86-.23,2.71Zm-2.73-.46.41-4.15.55.08-.19,1.85,1.3-1.68.75.12L30,72.21l.83,2.7-.71-.11-.56-2.07-.52.63-.12,1.26Zm-.81-1.75.5.36a1.93,1.93,0,0,1-.54.94.89.89,0,0,1-.76.17,1.07,1.07,0,0,1-.79-.68,2.92,2.92,0,0,1-.18-1.66,2.88,2.88,0,0,1,.59-1.58,1,1,0,0,1,1-.34,1,1,0,0,1,.72.54,2.17,2.17,0,0,1,.22.88l-.57.09a1.09,1.09,0,0,0-.15-.55.52.52,0,0,0-.34-.26.52.52,0,0,0-.53.23,2.11,2.11,0,0,0-.33,1,2.34,2.34,0,0,0,0,1.14.59.59,0,0,0,.44.43.43.43,0,0,0,.4-.14,1.37,1.37,0,0,0,.31-.62m-4-3.62.54.13-.35,2.23a6.41,6.41,0,0,0-.08.68.75.75,0,0,0,.11.46.47.47,0,0,0,.33.23.45.45,0,0,0,.33,0,.48.48,0,0,0,.21-.25,5.3,5.3,0,0,0,.16-.79l.36-2.27.55.13-.34,2.16A7.05,7.05,0,0,1,25.08,73a1,1,0,0,1-.41.52.93.93,0,0,1-.69.07,1.16,1.16,0,0,1-.63-.35,1.25,1.25,0,0,1-.27-.62,5.3,5.3,0,0,1,.1-1.29Zm-2.93,3.48.69-4.07.55.15-.58,3.37,1.35.36-.11.69Z"/><path class="cls-6" d="M61.44,72.41l-.22-1.16.51-.14A1.56,1.56,0,0,1,62,71a.79.79,0,0,1,.2,0l.14,0a.4.4,0,0,1,.12.1.51.51,0,0,1,.09.16.85.85,0,0,1,.06.19,1.5,1.5,0,0,1,0,.2.47.47,0,0,1,0,.17.34.34,0,0,1-.06.15.31.31,0,0,1-.09.11.52.52,0,0,1-.17.09l-.27.09-.59.16Zm0-1,.17.94.43-.12.26-.09.12-.06a.2.2,0,0,0,.06-.07.58.58,0,0,0,.05-.11.53.53,0,0,0,0-.13,1,1,0,0,0,0-.17.6.6,0,0,0-.05-.16.67.67,0,0,0-.06-.12l-.08-.07-.09,0a.56.56,0,0,0-.16,0,1.41,1.41,0,0,0-.28.07Zm.29-1.78-.35.09-.24.07Zm-.58,1.06-.19-1,.38-.11.35-.09.2,0a.31.31,0,0,1,.13,0,.41.41,0,0,1,.1.09.34.34,0,0,1,.09.14.84.84,0,0,1,0,.17.78.78,0,0,1,0,.21,1.16,1.16,0,0,1,0,.18.42.42,0,0,1-.09.14.38.38,0,0,1-.14.11l-.14,0-.27.08-.43.13Zm0-.9.14.79.54-.15.12,0,.1-.07.06-.1a.51.51,0,0,0,0-.13.5.5,0,0,0,0-.17.57.57,0,0,0,0-.14l-.06-.1-.06-.05-.06,0Zm.34-.81-1,.29.73,3.92L62,72.9a3.49,3.49,0,0,0,.48-.15l.25-.1a.59.59,0,0,0,.17-.18.92.92,0,0,0,.14-.28,1.93,1.93,0,0,0,.06-.36,2.8,2.8,0,0,0,0-.4,2,2,0,0,0-.1-.32.59.59,0,0,0-.14-.23.55.55,0,0,0-.18-.16.52.52,0,0,0-.21-.07l-.14,0,.09-.11a.5.5,0,0,0,.11-.17.72.72,0,0,0,.08-.22,1.15,1.15,0,0,0,0-.26c0-.09,0-.18,0-.28a1.73,1.73,0,0,0-.08-.27.88.88,0,0,0-.14-.23.61.61,0,0,0-.16-.16.4.4,0,0,0-.16-.08h-.23a2.27,2.27,0,0,0-.37.08m-1.12.16,1.08-.31.39-.09a.83.83,0,0,1,.28,0,.65.65,0,0,1,.22.11.68.68,0,0,1,.19.19,1,1,0,0,1,.16.26,1.26,1.26,0,0,1,.09.31,1,1,0,0,1,0,.3,1.36,1.36,0,0,1,0,.29,1.14,1.14,0,0,1-.09.26l-.06.11a.47.47,0,0,1,.15.06,1,1,0,0,1,.22.19,1.2,1.2,0,0,1,.16.27,1.6,1.6,0,0,1,.11.35,2.22,2.22,0,0,1,0,.44,1.76,1.76,0,0,1-.07.4,1.35,1.35,0,0,1-.15.32.63.63,0,0,1-.22.21,1.25,1.25,0,0,1-.28.13l-.48.15-1,.29-.78-4.23Zm-2.11.72-.4.09L58.14,72c0,.3.1.56.15.76a2.32,2.32,0,0,0,.15.45,1.3,1.3,0,0,0,.17.26,1.12,1.12,0,0,0,.22.16.61.61,0,0,0,.28.06,1.17,1.17,0,0,0,.36,0,1.15,1.15,0,0,0,.34-.13,1,1,0,0,0,.24-.23A1.32,1.32,0,0,0,60.2,73a1.72,1.72,0,0,0,.06-.34,4.46,4.46,0,0,0,0-.48c0-.21-.05-.44-.1-.72l-.32-2.07-.4.09.35,2.21c0,.2,0,.38.06.51a2.14,2.14,0,0,1,0,.32,1.18,1.18,0,0,1,0,.2,1,1,0,0,1-.1.17.58.58,0,0,1-.14.13l-.19.08a.65.65,0,0,1-.24,0,.48.48,0,0,1-.21-.09.5.5,0,0,1-.15-.17.82.82,0,0,1-.11-.25,1.3,1.3,0,0,1-.06-.25c0-.11,0-.25-.07-.43Zm-.5,0,.62-.15.36,2.31c0,.17.05.31.07.42a1.36,1.36,0,0,0,.06.24,1,1,0,0,0,.08.21l.12.13a.47.47,0,0,0,.15.06.5.5,0,0,0,.17,0l.15-.06a.47.47,0,0,0,.1-.1.29.29,0,0,0,.07-.12.47.47,0,0,0,0-.17.92.92,0,0,0,0-.28,4.07,4.07,0,0,0-.07-.51l-.36-2.34.69-.17.35,2.24c.05.28.08.52.1.72a3.19,3.19,0,0,1,0,.51,1.22,1.22,0,0,1-.07.38,1.16,1.16,0,0,1-.45.6,1.44,1.44,0,0,1-.38.15,1.58,1.58,0,0,1-.41,0,1,1,0,0,1-.34-.09.91.91,0,0,1-.26-.19,1.64,1.64,0,0,1-.2-.29,2.65,2.65,0,0,1-.16-.48q-.07-.31-.15-.78l-.35-2.26Zm-2.07.62.51,4L57.91,74l-.07-.54-1.36.27L56,70.31Zm.37,4-.54-4.17.7-.14.44,3.4L58,73.27l.11.84L56,74.52Zm-.64-1.09L55,73.22a2.88,2.88,0,0,1-.05.33,1.11,1.11,0,0,1-.12.31.63.63,0,0,1-.18.21.48.48,0,0,1-.23.1.5.5,0,0,1-.32,0,.76.76,0,0,1-.27-.24,1.59,1.59,0,0,1-.2-.45,3.57,3.57,0,0,1-.11-.68,3.91,3.91,0,0,1,0-.67,1.54,1.54,0,0,1,.11-.48,1.05,1.05,0,0,1,.21-.31.68.68,0,0,1,.31-.14.65.65,0,0,1,.24,0,.6.6,0,0,1,.21.13.63.63,0,0,1,.16.22.67.67,0,0,1,.09.21l.39-.21a2.42,2.42,0,0,0-.16-.39,1.14,1.14,0,0,0-.21-.3.82.82,0,0,0-.74-.25,1,1,0,0,0-.46.2,1.19,1.19,0,0,0-.33.42,2.29,2.29,0,0,0-.21.74,3.69,3.69,0,0,0,0,.94,3.51,3.51,0,0,0,.18.87,1.89,1.89,0,0,0,.34.63,1.08,1.08,0,0,0,.39.3.79.79,0,0,0,.46,0,.82.82,0,0,0,.35-.13.8.8,0,0,0,.28-.27,1.43,1.43,0,0,0,.2-.43,2.71,2.71,0,0,0,.1-.55m-.46-.3.62.19v.06a3.53,3.53,0,0,1-.11.64,1.78,1.78,0,0,1-.22.48,1.21,1.21,0,0,1-.33.31,1,1,0,0,1-.41.15,1,1,0,0,1-.54-.06,1.17,1.17,0,0,1-.45-.34,2.44,2.44,0,0,1-.37-.68,4.31,4.31,0,0,1-.19-.9,4.53,4.53,0,0,1,0-1,2.35,2.35,0,0,1,.22-.79,1.42,1.42,0,0,1,.38-.48,1.2,1.2,0,0,1,.53-.22,1,1,0,0,1,.46,0,1,1,0,0,1,.41.26,1.22,1.22,0,0,1,.24.33,2.56,2.56,0,0,1,.18.47l0,.06-.67.36,0-.09a1.18,1.18,0,0,0-.1-.27.51.51,0,0,0-.14-.18.3.3,0,0,0-.15-.09.47.47,0,0,0-.17,0,.54.54,0,0,0-.23.11.84.84,0,0,0-.17.25,1.51,1.51,0,0,0-.1.44,4.89,4.89,0,0,0,0,.64,4.35,4.35,0,0,0,.11.65,1.54,1.54,0,0,0,.17.4.6.6,0,0,0,.21.19.4.4,0,0,0,.24,0,.46.46,0,0,0,.16-.07.73.73,0,0,0,.14-.16,1,1,0,0,0,.1-.28,2.07,2.07,0,0,0,.05-.4V73Zm-5.25-1.76.28,4,.4,0-.12-1.77,1.15-.12,0-.56-1.15.13L50.1,71.8l1.33-.14,0-.56Zm.13,4.11-.3-4.24,2-.23.06.86-1.33.15.06.83,1.15-.12.06.85-1.15.13.12,1.77-.7.08Zm-2.31-3.89.17,4,1.78-.12,0-.55L48,74.92l-.15-3.44Zm0,4.07-.18-4.22.71,0,.14,3.44,1.39-.09,0,.86-2.09.13ZM45,74.29a3.68,3.68,0,0,1-.07-.64,3.34,3.34,0,0,1,0-.66,1.51,1.51,0,0,1,.15-.48,1,1,0,0,1,.26-.3.72.72,0,0,1,.35-.11.6.6,0,0,1,.35.08.91.91,0,0,1,.27.28,1.3,1.3,0,0,1,.18.46,3,3,0,0,1,.08.65,4.33,4.33,0,0,1,0,.66,1.29,1.29,0,0,1-.16.48.81.81,0,0,1-.26.31.57.57,0,0,1-.33.11.6.6,0,0,1-.35-.08,1.11,1.11,0,0,1-.28-.29,1.59,1.59,0,0,1-.19-.47m.08-.64a3.42,3.42,0,0,0,.07.61,1.36,1.36,0,0,0,.17.42.76.76,0,0,0,.23.24.48.48,0,0,0,.26.06.38.38,0,0,0,.25-.09.68.68,0,0,0,.22-.25,1.52,1.52,0,0,0,.14-.44,3.09,3.09,0,0,0,0-.63,3.62,3.62,0,0,0-.06-.62,1.75,1.75,0,0,0-.16-.41.6.6,0,0,0-.23-.22.48.48,0,0,0-.26-.07.62.62,0,0,0-.27.09.75.75,0,0,0-.21.25,1.21,1.21,0,0,0-.14.43,3.92,3.92,0,0,0,0,.63M44.5,73a3.55,3.55,0,0,0,0,.67,3.92,3.92,0,0,0,.12.9,1.84,1.84,0,0,0,.31.66,1.08,1.08,0,0,0,.39.35,1,1,0,0,0,.5.09.91.91,0,0,0,.49-.14,1.12,1.12,0,0,0,.37-.38,2.32,2.32,0,0,0,.27-.7,3.74,3.74,0,0,0,.07-.92,3.92,3.92,0,0,0-.12-.9,1.88,1.88,0,0,0-.28-.64,1.24,1.24,0,0,0-.42-.38.92.92,0,0,0-.5-.11,1.28,1.28,0,0,0-.35.07,1,1,0,0,0-.29.18,1.13,1.13,0,0,0-.23.29,1.62,1.62,0,0,0-.19.42,2.71,2.71,0,0,0-.11.54m-.18.67a5.1,5.1,0,0,1,0-.69,3,3,0,0,1,.13-.57,2.34,2.34,0,0,1,.19-.45,1.49,1.49,0,0,1,.27-.33,1.27,1.27,0,0,1,.34-.2,1.24,1.24,0,0,1,.4-.08,1.14,1.14,0,0,1,.58.12,1.55,1.55,0,0,1,.46.43,2,2,0,0,1,.31.7,4.12,4.12,0,0,1,.12.93,4,4,0,0,1-.07,1,2.3,2.3,0,0,1-.29.75,1.19,1.19,0,0,1-1,.6,1.1,1.1,0,0,1-.58-.12,1.18,1.18,0,0,1-.45-.39,2.2,2.2,0,0,1-.32-.71,3.81,3.81,0,0,1-.13-.94m-1.39,0v.55h.63v.65a.81.81,0,0,1-.16.16.94.94,0,0,1-.18.12.77.77,0,0,1-.19.08.57.57,0,0,1-.18,0,.65.65,0,0,1-.36-.1.71.71,0,0,1-.26-.28,1.46,1.46,0,0,1-.19-.51,3.37,3.37,0,0,1-.06-.68,3.83,3.83,0,0,1,.05-.63,1.38,1.38,0,0,1,.18-.46.83.83,0,0,1,.28-.28.65.65,0,0,1,.36-.1.6.6,0,0,1,.24,0,.51.51,0,0,1,.21.15.76.76,0,0,1,.15.23,1.13,1.13,0,0,1,.08.22l.41-.12a1.84,1.84,0,0,0-.13-.45,1.28,1.28,0,0,0-.22-.36,1,1,0,0,0-.74-.29,1,1,0,0,0-.36.06.9.9,0,0,0-.3.17,1.22,1.22,0,0,0-.25.29,2.24,2.24,0,0,0-.2.41,2.56,2.56,0,0,0-.14.53,4.09,4.09,0,0,0,0,.63,3.91,3.91,0,0,0,0,.61,2.74,2.74,0,0,0,.14.53,1.63,1.63,0,0,0,.2.42,1.31,1.31,0,0,0,.27.3,1.17,1.17,0,0,0,.31.17,1,1,0,0,0,.36.06,1.12,1.12,0,0,0,.31,0,1.44,1.44,0,0,0,.32-.13,2,2,0,0,0,.28-.2,1.3,1.3,0,0,0,.19-.22V73.67Zm-.16.62v-.78h1.36v1.75l0,0a1.38,1.38,0,0,1-.23.26,1.89,1.89,0,0,1-.31.22,1.19,1.19,0,0,1-.35.15,1.34,1.34,0,0,1-.35,0,1.1,1.1,0,0,1-.41-.07,1.07,1.07,0,0,1-.36-.2,1.21,1.21,0,0,1-.3-.33,2.1,2.1,0,0,1-.22-.45,3,3,0,0,1-.14-.55,4.37,4.37,0,0,1,0-.64,4.43,4.43,0,0,1,0-.66,2.76,2.76,0,0,1,.14-.55,3.15,3.15,0,0,1,.22-.45,1.5,1.5,0,0,1,.29-.32,1,1,0,0,1,.34-.19,1.14,1.14,0,0,1,.41-.07,1.12,1.12,0,0,1,.85.34,1.37,1.37,0,0,1,.26.41,2.44,2.44,0,0,1,.14.55v.06l-.7.2V73a1.73,1.73,0,0,0-.08-.27.91.91,0,0,0-.13-.19.57.57,0,0,0-.16-.11.48.48,0,0,0-.18,0,.53.53,0,0,0-.28.07.72.72,0,0,0-.23.23,1.4,1.4,0,0,0-.16.41,3.45,3.45,0,0,0-.05.6,3.06,3.06,0,0,0,.06.65,1.3,1.3,0,0,0,.17.46.67.67,0,0,0,.21.23.51.51,0,0,0,.28.08l.14,0,.16-.06.15-.11.12-.11v-.43h-.64Zm-6-2.73.52,4,.47,0,.62-3h.15L39,75.69l.47,0,.75-4-.4,0-.49,2.83h-.16l-.39-2.88-.53,0-.57,2.79h-.16l-.32-2.83Zm.37,4.14-.55-4.31.73,0,.28,2.48.5-2.45.8,0L39.27,74l.43-2.48.72,0-.82,4.31-.72,0-.41-2.78-.56,2.74-.73,0ZM34.38,74a4.46,4.46,0,0,1,0-.65,3.57,3.57,0,0,1,.1-.65,1.3,1.3,0,0,1,.19-.46.92.92,0,0,1,.29-.27.71.71,0,0,1,.35-.07.78.78,0,0,1,.34.13,1,1,0,0,1,.25.31,1.29,1.29,0,0,1,.14.48,3.39,3.39,0,0,1,0,.65,3.9,3.9,0,0,1-.09.66,1.51,1.51,0,0,1-.2.46.89.89,0,0,1-.28.27.61.61,0,0,1-.35.07.62.62,0,0,1-.34-.13.94.94,0,0,1-.25-.32,1.51,1.51,0,0,1-.15-.48m.14-.65a2.45,2.45,0,0,0,0,.62,1.21,1.21,0,0,0,.13.44.75.75,0,0,0,.21.27.46.46,0,0,0,.25.1.45.45,0,0,0,.26,0,.72.72,0,0,0,.23-.23,1,1,0,0,0,.18-.41,4.76,4.76,0,0,0,.09-.63,4.05,4.05,0,0,0,0-.62,1.22,1.22,0,0,0-.12-.43.67.67,0,0,0-.21-.25.46.46,0,0,0-.26-.1.49.49,0,0,0-.27,0,.68.68,0,0,0-.23.22,1.5,1.5,0,0,0-.18.4,3.47,3.47,0,0,0-.08.62M34,72.66a5.56,5.56,0,0,0-.09.66,4.34,4.34,0,0,0,.05.91,2.07,2.07,0,0,0,.25.7,1.17,1.17,0,0,0,.36.4,1.09,1.09,0,0,0,.49.16.91.91,0,0,0,.5-.08,1,1,0,0,0,.4-.33,2,2,0,0,0,.32-.65,3.93,3.93,0,0,0,.15-.91,3.79,3.79,0,0,0,0-.91,2.18,2.18,0,0,0-.23-.68,1.46,1.46,0,0,0-.38-.43.93.93,0,0,0-.49-.17,1.06,1.06,0,0,0-.36,0,.83.83,0,0,0-.3.14,1.07,1.07,0,0,0-.26.26,2.36,2.36,0,0,0-.22.39,3,3,0,0,0-.15.52m-.24.65a4.32,4.32,0,0,1,.09-.68,2.66,2.66,0,0,1,.16-.56,1.77,1.77,0,0,1,.24-.41,1.66,1.66,0,0,1,.29-.3,1.17,1.17,0,0,1,.36-.16,1.3,1.3,0,0,1,.4,0,1.26,1.26,0,0,1,.57.2,1.57,1.57,0,0,1,.42.49,2.17,2.17,0,0,1,.25.73,4,4,0,0,1,0,.94,4.2,4.2,0,0,1-.15.94,2,2,0,0,1-.35.7,1,1,0,0,1-.46.38,1.08,1.08,0,0,1-.57.09,1.16,1.16,0,0,1-.56-.18A1.4,1.4,0,0,1,34.1,75a2.46,2.46,0,0,1-.26-.75,4.1,4.1,0,0,1-.05-1m-2.28-2.39-.34,4,.36,0,.23-2.63.15,0,.86,2.82.42,0,.34-4-.36-.05-.23,2.7-.15,0L31.92,71ZM31,75l.36-4.25.67.09.78,2.59L33,71l.67.09c-.13,1.44-.25,2.88-.37,4.31l-.68-.09-.77-2.52-.21,2.4L31,75.06Zm-2.18-4.52-.39,4,.4.06L29,73.35l0,0,.61-.74.59,2.16.54.08-.81-2.62L31,70.8l-.56-.08-1.28,1.63-.13,0,.17-1.77Zm-.55,4,.42-4.23.7.11-.16,1.65,1.16-1.5.92.14-1.25,1.53L30.93,75l-.88-.13-.54-2-.41.49L29,74.7l-.7-.1ZM28,73.17l-.37-.26a1.49,1.49,0,0,1-.11.28,1.17,1.17,0,0,1-.19.27.59.59,0,0,1-.22.14.52.52,0,0,1-.25,0,.73.73,0,0,1-.3-.16,1.1,1.1,0,0,1-.2-.32,1.36,1.36,0,0,1-.08-.49,3.42,3.42,0,0,1,0-.69,3.23,3.23,0,0,1,.13-.65,1.32,1.32,0,0,1,.21-.43.75.75,0,0,1,.28-.23.61.61,0,0,1,.33,0,.49.49,0,0,1,.22.1.74.74,0,0,1,.17.18.81.81,0,0,1,.11.27,1.72,1.72,0,0,1,0,.24l.41-.06a2.35,2.35,0,0,0-.06-.42,1.18,1.18,0,0,0-.14-.36,1,1,0,0,0-.29-.34,1,1,0,0,0-.37-.17.9.9,0,0,0-.89.32,1.93,1.93,0,0,0-.36.63,4.19,4.19,0,0,0-.22.91,4.6,4.6,0,0,0,0,.9,2.24,2.24,0,0,0,.2.72,1.09,1.09,0,0,0,.31.43.83.83,0,0,0,.43.21,1.15,1.15,0,0,0,.37,0,.88.88,0,0,0,.32-.16,1.27,1.27,0,0,0,.28-.35,2.34,2.34,0,0,0,.22-.5m-.36-.45.54.39,0,.06a2.9,2.9,0,0,1-.24.58,1.85,1.85,0,0,1-.32.39,1.18,1.18,0,0,1-.39.19,1,1,0,0,1-.43,0,1.11,1.11,0,0,1-.5-.24,1.36,1.36,0,0,1-.35-.48,2.36,2.36,0,0,1-.21-.78,4.2,4.2,0,0,1,0-.93,4.49,4.49,0,0,1,.22-.94,2.13,2.13,0,0,1,.39-.68,1.15,1.15,0,0,1,.48-.33,1,1,0,0,1,.56,0,1,1,0,0,1,.44.2,1.22,1.22,0,0,1,.32.38,1.45,1.45,0,0,1,.16.4,2.62,2.62,0,0,1,.07.52v.07l-.73.11V71.5a1.27,1.27,0,0,0,0-.29.63.63,0,0,0-.09-.22.49.49,0,0,0-.13-.15.33.33,0,0,0-.16-.07.38.38,0,0,0-.24,0,.73.73,0,0,0-.22.18,1.49,1.49,0,0,0-.19.38,3.94,3.94,0,0,0-.12.63,3.14,3.14,0,0,0,0,.66,1.4,1.4,0,0,0,.08.45.61.61,0,0,0,.16.26.39.39,0,0,0,.22.11.25.25,0,0,0,.17,0,.31.31,0,0,0,.16-.1.84.84,0,0,0,.16-.23,2.08,2.08,0,0,0,.14-.36l0-.1ZM24,69.35l-.4-.1-.33,2.11a6.93,6.93,0,0,0-.09.78,2,2,0,0,0,0,.49,1.5,1.5,0,0,0,.09.32,1.1,1.1,0,0,0,.15.26,1.12,1.12,0,0,0,.24.19,1.21,1.21,0,0,0,.35.13,1.14,1.14,0,0,0,.36,0,.66.66,0,0,0,.28-.09.82.82,0,0,0,.22-.19A1,1,0,0,0,25,73c0-.11.08-.27.13-.46s.08-.43.12-.7l.33-2.09-.4-.1-.34,2.19q0,.32-.09.51a2.83,2.83,0,0,1-.08.3.69.69,0,0,1-.1.17.44.44,0,0,1-.15.12.35.35,0,0,1-.18,0,.69.69,0,0,1-.2,0,.62.62,0,0,1-.22-.1.52.52,0,0,1-.16-.17.92.92,0,0,1-.09-.23,1.2,1.2,0,0,1,0-.28,1.61,1.61,0,0,1,0-.25c0-.11,0-.26.06-.44Zm-.44-.27.61.15-.36,2.3c0,.16-.05.31-.06.42a1.4,1.4,0,0,0,0,.25.65.65,0,0,0,0,.24.56.56,0,0,0,.07.18.34.34,0,0,0,.12.12.53.53,0,0,0,.17.08.38.38,0,0,0,.15,0,.27.27,0,0,0,.12,0,.28.28,0,0,0,.1-.09.4.4,0,0,0,.07-.13,1.12,1.12,0,0,0,.08-.27c0-.13.06-.3.09-.5l.37-2.35.69.16-.35,2.23c0,.28-.08.52-.12.71a3.68,3.68,0,0,1-.14.48.88.88,0,0,1-.18.33,1,1,0,0,1-.26.23.85.85,0,0,1-.35.11.93.93,0,0,1-.4,0,1.38,1.38,0,0,1-.39-.15.88.88,0,0,1-.28-.22.92.92,0,0,1-.18-.3,1.36,1.36,0,0,1-.1-.36,2.8,2.8,0,0,1,0-.52c0-.22.05-.48.1-.79l.36-2.27Zm-2.2-.41-.66,3.91,1.74.46.1-.54-1.36-.36.58-3.37Zm-.83,4,.71-4.14.69.18L21.34,72l1.35.36-.14.84-2.05-.54Z"/><text class="cls-7" transform="translate(99.87 42.68)"><tspan class="cls-8">L</tspan><tspan class="cls-9" x="16.8" y="0">UCKN</tspan><tspan class="cls-10" x="103.94" y="0">O</tspan><tspan x="127.33" y="0">W</tspan><tspan class="cls-11"><tspan x="0" y="42.35">GOLF C</tspan><tspan class="cls-12" x="184.94" y="42.35">L</tspan><tspan x="213.21" y="42.35">UB</tspan></tspan></text></g></g></svg>